<svg width="28" height="28" viewBox="0 0 28 28" fill="none" xmlns="http://www.w3.org/2000/svg">
<path d="M17.9781 4.39678L16.3662 2.74462L17.6176 1.52299L18.7062 2.63786L20.2639 2.61861C20.9381 2.61063 21.6072 2.73754 22.2317 2.9919C22.8562 3.24625 23.4235 3.6229 23.9003 4.09971C24.3771 4.57651 24.7537 5.14384 25.0081 5.76833C25.2625 6.39282 25.3894 7.06186 25.3814 7.73612L25.3639 9.29378L26.477 10.3824C26.9591 10.8535 27.3422 11.4162 27.6037 12.0374C27.8653 12.6587 28 13.3259 28 14C28 14.6741 27.8653 15.3413 27.6037 15.9626C27.3422 16.5838 26.9591 17.1465 26.477 17.6176L25.3621 18.7062L25.3814 20.2639C25.3894 20.9381 25.2625 21.6072 25.0081 22.2317C24.7537 22.8562 24.3771 23.4235 23.9003 23.9003C23.4235 24.3771 22.8562 24.7537 22.2317 25.0081C21.6072 25.2625 20.9381 25.3894 20.2639 25.3814L18.7062 25.3639L17.6176 26.477C17.1465 26.9591 16.5838 27.3422 15.9626 27.6037C15.3413 27.8653 14.6741 28 14 28C13.3259 28 12.6587 27.8653 12.0374 27.6037C11.4162 27.3422 10.8535 26.9591 10.3824 26.477L9.29378 25.3621L7.73612 25.3814C7.06186 25.3894 6.39282 25.2625 5.76833 25.0081C5.14384 24.7537 4.57651 24.3771 4.09971 23.9003C3.6229 23.4235 3.24625 22.8562 2.9919 22.2317C2.73754 21.6072 2.61063 20.9381 2.61861 20.2639L2.63611 18.7062L1.52299 17.6176C1.04089 17.1465 0.657814 16.5838 0.396272 15.9626C0.13473 15.3413 0 14.6741 0 14C0 13.3259 0.13473 12.6587 0.396272 12.0374C0.657814 11.4162 1.04089 10.8535 1.52299 10.3824L2.63786 9.29378L2.61861 7.73612C2.61063 7.06186 2.73754 6.39282 2.9919 5.76833C3.24625 5.14384 3.6229 4.57651 4.09971 4.09971C4.57651 3.6229 5.14384 3.24625 5.76833 2.9919C6.39282 2.73754 7.06186 2.61063 7.73612 2.61861L9.29378 2.63611L10.3824 1.52299C10.8535 1.04089 11.4162 0.657814 12.0374 0.396272C12.6587 0.13473 13.3259 0 14 0C14.6741 0 15.3413 0.13473 15.9626 0.396272C16.5838 0.657814 17.1465 1.04089 17.6176 1.52299L16.3662 2.74462C16.0581 2.42921 15.6901 2.17859 15.2837 2.00747C14.8774 1.83636 14.4409 1.74821 14 1.74821C13.5591 1.74821 13.1226 1.83636 12.7163 2.00747C12.3099 2.17859 11.9419 2.42921 11.6338 2.74462L10.0236 4.39678L7.71337 4.36878C7.27263 4.36385 6.83536 4.44706 6.42724 4.6135C6.01911 4.77995 5.64837 5.02628 5.33678 5.33803C5.0252 5.64977 4.77906 6.02065 4.61283 6.42886C4.4466 6.83707 4.36362 7.27439 4.36878 7.71512L4.39678 10.0219L2.74462 11.6338C2.42921 11.9419 2.17859 12.3099 2.00747 12.7163C1.83636 13.1226 1.74821 13.5591 1.74821 14C1.74821 14.4409 1.83636 14.8774 2.00747 15.2837C2.17859 15.6901 2.42921 16.0581 2.74462 16.3662L4.39678 17.9764L4.36878 20.2866C4.36385 20.7274 4.44706 21.1646 4.6135 21.5728C4.77995 21.9809 5.02628 22.3516 5.33803 22.6632C5.64977 22.9748 6.02065 23.2209 6.42886 23.3872C6.83707 23.5534 7.27439 23.6364 7.71512 23.6312L10.0219 23.6032L11.6338 25.2554C11.9419 25.5708 12.3099 25.8214 12.7163 25.9925C13.1226 26.1636 13.5591 26.2518 14 26.2518C14.4409 26.2518 14.8774 26.1636 15.2837 25.9925C15.6901 25.8214 16.0581 25.5708 16.3662 25.2554L17.9764 23.6032L20.2866 23.6312C20.7274 23.6361 21.1646 23.5529 21.5728 23.3865C21.9809 23.22 22.3516 22.9737 22.6632 22.662C22.9748 22.3502 23.2209 21.9794 23.3872 21.5711C23.5534 21.1629 23.6364 20.7256 23.6312 20.2849L23.6032 17.9781L25.2554 16.3662C25.5708 16.0581 25.8214 15.6901 25.9925 15.2837C26.1636 14.8774 26.2518 14.4409 26.2518 14C26.2518 13.5591 26.1636 13.1226 25.9925 12.7163C25.8214 12.3099 25.5708 11.9419 25.2554 11.6338L23.6032 10.0236L23.6312 7.71337C23.6361 7.27263 23.5529 6.83536 23.3865 6.42724C23.22 6.01911 22.9737 5.64837 22.662 5.33678C22.3502 5.0252 21.9794 4.77906 21.5711 4.61283C21.1629 4.4466 20.7256 4.36362 20.2849 4.36878L17.9781 4.39678V4.39678Z" fill="white"/>
</svg>
