<svg width="13" height="16" viewBox="0 0 22 25" fill="none" xmlns="http://www.w3.org/2000/svg">
<path d="M4.125 25C3.36875 25 2.72158 24.7282 2.1835 24.1847C1.6445 23.6403 1.375 22.9861 1.375 22.2222V4.16667H0V1.38889H6.875V0H15.125V1.38889H22V4.16667H20.625V22.2222C20.625 22.9861 20.356 23.6403 19.8179 24.1847C19.2789 24.7282 18.6313 25 17.875 25H4.125ZM17.875 4.16667H4.125V22.2222H17.875V4.16667ZM6.875 19.4444H9.625V6.94444H6.875V19.4444ZM12.375 19.4444H15.125V6.94444H12.375V19.4444ZM4.125 4.16667V22.2222V4.16667Z" fill="white"/>
</svg>
