<svg width="64" height="64" viewBox="0 0 40 40" fill="none" xmlns="http://www.w3.org/2000/svg">
<path d="M27.9648 20.5626L30.5473 19.0415C31.078 18.7231 31.7324 18.7231 32.2631 19.0415L34.8279 20.5626C35.4399 20.9341 35.5354 21.7478 35.118 22.2466L36.6923 23.1788L37.1999 22.8781C37.7306 22.5597 38.385 22.5597 38.898 22.8781L41.4805 24.3992C42.2057 24.8415 42.2057 25.9028 41.4805 26.3273L40.3732 26.98C40.376 27.0844 40.3736 27.1889 40.3661 27.2931V30.5389C40.3661 30.8873 40.3042 31.2393 40.1804 31.5772L41.4805 32.3431C42.2057 32.7853 42.2057 33.8466 41.4805 34.2711L38.898 35.7923C38.6424 35.9486 38.3486 36.0313 38.0489 36.0313C37.7493 36.0313 37.4555 35.9486 37.1999 35.7923L35.7778 34.9539L34.0408 35.9798L34.8297 36.4468C35.5549 36.889 35.5549 37.9503 34.8297 38.3748L32.2472 39.896C31.9916 40.0523 31.6978 40.135 31.3981 40.135C31.0985 40.135 30.8047 40.0523 30.5491 39.896L27.9666 38.3748C27.2414 37.9326 27.2414 36.8713 27.9666 36.4468L28.7626 35.9763L27.2591 35.0865L25.614 36.0559C25.3584 36.2122 25.0646 36.2949 24.765 36.2949C24.4654 36.2949 24.1716 36.2122 23.916 36.0559L21.3335 34.5347C20.6082 34.0925 20.6082 33.0312 21.3335 32.6066L22.7167 31.793C22.538 31.3985 22.4463 30.9702 22.4478 30.5371V27.2931L22.4443 27.2488L21.3335 26.5944C20.6082 26.1522 20.6082 25.0909 21.3335 24.6663L23.916 23.1451C24.1716 22.9888 24.4654 
22.9061 24.765 22.9061C25.0646 22.9061 25.3584 22.9888 25.614 23.1451L25.8918 23.3079L27.68 22.243C27.5767 22.1184 27.5014 21.973 27.4595 21.8166C27.4176 21.6602 27.41 21.4966 27.4372 21.337C27.4644 21.1774 27.5258 21.0256 27.6172 20.8919C27.7086 20.7583 27.8278 20.6459 27.9666 20.5626H27.9648ZM24.2149 29.8172V30.5371C24.2149 30.9581 24.4095 31.3437 24.8075 31.5789L30.2236 34.7823C30.9524 35.2174 31.8598 35.2174 32.5886 34.7823H32.5921L38.0047 31.5807C38.1867 31.4744 38.3374 31.3219 38.4414 31.1386C38.5455 30.9554 38.5992 30.7478 38.5973 30.5371V29.8172L33.496 32.8348C32.8642 33.2113 32.1424 33.4101 31.407 33.4101C30.6715 33.4101 29.9498 33.2113 29.318 32.8348L24.2167 29.8172H24.2149ZM30.2236 22.7878L24.8075 26.0089C24.6206 26.1167 24.4662 26.2727 24.3604 26.4607C24.2546 26.6487 24.2013 26.8616 24.2061 27.0773C24.2131 27.4841 24.4112 27.8785 24.8075 28.112L30.2236 31.3154C30.9524 31.7505 31.8598 31.7505 32.5886 31.3154H32.5921L38.0047 28.1138C38.1868 28.0087 38.3382 27.8576 38.4437 27.6758C38.5492 27.4939 38.6052 27.2875 38.6061 27.0773C38.6109 26.8616 38.5576 26.6487 38.4518 26.4607C38.346 26.2727 38.1916 26.1167 38.0047 26.0089L32.5797 22.8002C32.2257 22.5827 31.8189 22.4665 31.4034 22.4643C30.9879 22.4621 30.5799 22.574 30.2236 22.7878V22.7878Z" fill="#F1A30B"/>
<path d="M14.6811 28.77L17.2636 27.2488C17.7943 26.9304 18.4487 26.9304 18.9617 27.2488L21.5442 28.77C22.2694 29.2122 22.2694 30.2735 21.5442 30.6981L18.9617 32.2193C18.7061 32.3756 18.4123 32.4583 18.1127 32.4583C17.813 32.4583 17.5192 32.3756 17.2636 32.2193L14.6811 30.6981C13.9559 30.2559 13.9559 29.1945 14.6811 28.77ZM43.8492 26.7182L41.2667 28.2394C40.5415 28.6639 40.5415 29.7252 41.2667 30.1674L43.8492 31.7063C44.3798 32.0247 45.0343 32.0247 45.5473 31.7063L48.1298 30.1851C48.855 29.7606 48.855 28.6993 48.1298 28.2571L45.5473 26.7359C45.2948 26.5729 45.0013 26.4848 44.7008 26.4817C44.4003 26.4786 44.105 26.5606 43.8492 26.7182V26.7182Z" fill="#F1A30B"/>
<path d="M27.6056 15.8381C28.7571 15.1585 30.0697 14.8 31.4068 14.8C32.7439 14.8 34.0565 15.1585 35.208 15.8381L52.0968 25.8497H52.1004C52.3657 26.0053 52.6098 26.1822 52.8309 26.375C54.5055 27.5607 55.7726 29.2349 56.4588 31.1686C56.8479 32.1793 57.0305 33.2577 56.9959 34.3402C56.9612 35.4226 56.71 36.4872 56.2571 37.4709L56.2554 37.4727C55.607 38.8742 54.5756 40.0637 53.2802 40.9042L53.2678 40.9113L37.9497 50.1375C35.9689 51.3126 33.7082 51.9327 31.405 51.9327C29.1019 51.9327 26.8412 51.3126 24.8604 50.1375L24.8568 50.134L9.53871 40.9078C8.22985 40.0765 7.19262 38.8806 6.55469 37.4674C6.10636 36.4833 5.85754 35.4201 5.82263 34.3392C5.78771 33.2584 5.96739 32.1813 6.35127 31.1703C7.03199 29.2638 8.27858 27.6105 9.92432 26.4316C10.1661 26.2113 10.4299 26.0163 10.7114 25.8497L27.6038 15.8381H27.6056ZM28.5041 17.3611L11.6118 27.3727C9.71029 28.4994 9.71913 31.2322 11.6082 32.3395L11.6136 32.3413L28.5041 42.3529C29.3833 42.8714 30.3853 43.1449 31.4059 43.1449C32.4266 43.1449 33.4286 42.8714 34.3077 42.3529L51.2001 32.3413C53.1015 31.2146 53.0927 28.4817 51.2036 27.3744L51.2001 27.3727L34.3077 17.3611C33.4285 16.8427 32.4265 16.5693 31.4059 16.5693C30.3853 16.5693 29.3833 16.8427 28.5041 17.3611V17.3611Z" fill="#F1A30B"/>
</svg>
