<svg width="37" height="27" viewBox="0 0 37 27" fill="none" xmlns="http://www.w3.org/2000/svg">
<path d="M16.0099 4.05551L17.8768 2.98495C18.2604 2.76088 18.7335 2.76088 19.1172 2.98495L20.9713 4.05551C21.4137 4.31693 21.4828 4.88956 21.181 5.24061L22.3191 5.89664L22.6861 5.68501C23.0697 5.46094 23.5428 5.46094 23.9136 5.68501L25.7805 6.75558C26.3048 7.06679 26.3048 7.8137 25.7805 8.11246L24.9801 8.57181C24.9821 8.64529 24.9804 8.71882 24.975 8.79214V11.0764C24.975 11.3217 24.9302 11.5694 24.8407 11.8072L25.7805 12.3462C26.3048 12.6574 26.3048 13.4043 25.7805 13.7031L23.9136 14.7736C23.7288 14.8836 23.5164 14.9418 23.2998 14.9418C23.0832 14.9418 22.8708 14.8836 22.6861 14.7736L21.658 14.1836L20.4023 14.9056L20.9726 15.2342C21.4968 15.5454 21.4968 16.2923 20.9726 16.5911L19.1056 17.6617C18.9209 17.7717 18.7085 17.8299 18.4919 17.8299C18.2753 17.8299 18.0629 17.7717 17.8781 17.6617L16.0111 16.5911C15.4869 16.2799 15.4869 15.533 16.0111 15.2342L16.5866 14.9031L15.4997 14.2769L14.3105 14.9591C14.1257 15.0691 13.9133 15.1273 13.6967 15.1273C13.4801 15.1273 13.2677 15.0691 13.0829 14.9591L11.216 13.8885C10.6917 13.5773 10.6917 12.8304 11.216 12.5317L12.2159 11.959C12.0867 11.6814 12.0204 11.38 12.0216 11.0752V8.79214L12.019 8.76102L11.216 8.30043C10.6917 7.98922 10.6917 7.24231 11.216 6.94355L13.0829 5.87299C13.2677 5.76297 13.4801 5.70475 13.6967 5.70475C13.9133 5.70475 14.1257 5.76297 14.3105 5.87299L14.5112 5.98751L15.804 5.23812C15.7293 5.15043 15.6749 5.04805 15.6446 4.93799C15.6143 4.82793 15.6088 4.7128 15.6285 4.60048C15.6481 4.48816 15.6925 4.38131 15.7586 4.28724C15.8246 4.19318 15.9108 4.11413 16.0111 4.05551H16.0099ZM13.299 10.5685V11.0752C13.299 11.3715 13.4396 11.6428 13.7274 11.8084L17.6428 14.0628C18.1696 14.369 18.8256 14.369 19.3524 14.0628H19.355L23.2679 11.8096C23.3994 11.7348 23.5083 11.6275 23.5836 11.4985C23.6588 11.3695 23.6977 11.2235 23.6962 11.0752V10.5685L20.0084 12.6922C19.5517 12.9572 19.0299 13.0971 18.4983 13.0971C17.9666 13.0971 17.4448 12.9572 16.9881 12.6922L13.3003 10.5685H13.299ZM17.6428 5.62153L13.7274 7.88839C13.5923 7.96425 13.4807 8.07408 13.4042 8.20636C13.3277 8.33864 13.2892 8.48851 13.2926 8.64027C13.2977 8.92659 13.4409 9.20419 13.7274 9.36851L17.6428 11.6229C18.1696 11.9291 18.8256 11.9291 19.3524 11.6229H19.355L23.2679 9.36975C23.3995 9.29576 23.5089 9.18947 23.5852 9.06148C23.6615 8.93348 23.702 8.78825 23.7026 8.64027C23.7061 8.48851 23.6675 8.33864 23.591 8.20636C23.5146 8.07408 23.4029 7.96425 23.2679 7.88839L19.346 5.63024C19.0902 5.47715 18.796 5.39538 18.4957 5.39384C18.1953 5.39231 17.9003 5.47106 17.6428 5.62153V5.62153Z" fill="#F1A30B"/>
<path d="M6.40688 9.8317L8.2738 8.76113C8.65742 8.53706 9.13055 8.53706 9.50137 8.76113L11.3683 9.8317C11.8926 10.1429 11.8926 10.8898 11.3683 11.1886L9.50137 12.2591C9.31659 12.3692 9.10419 12.4274 8.88759 12.4274C8.67099 12.4274 8.45859 12.3692 8.2738 12.2591L6.40688 11.1886C5.8826 10.8774 5.8826 10.1305 6.40688 9.8317ZM27.4929 8.38768L25.626 9.45824C25.1017 9.75701 25.1017 10.5039 25.626 10.8151L27.4929 11.8981C27.8765 12.1222 28.3497 12.1222 28.7205 11.8981L30.5874 10.8276C31.1117 10.5288 31.1117 9.7819 30.5874 9.47069L28.7205 8.40013C28.5379 8.28547 28.3258 8.22346 28.1086 8.22125C27.8913 8.21905 27.6779 8.27675 27.4929 8.38768V8.38768Z" fill="#F1A30B"/>
<path d="M15.7503 0.730569C16.5828 0.25228 17.5317 0 18.4983 0C19.4649 0 20.4138 0.25228 21.2462 0.730569L33.4554 7.77638H33.458C33.6498 7.88593 33.8263 8.01041 33.9861 8.1461C35.1967 8.98052 36.1127 10.1588 36.6088 11.5196C36.89 12.2309 37.022 12.9899 36.997 13.7517C36.972 14.5135 36.7904 15.2627 36.463 15.955L36.4617 15.9563C35.993 16.9425 35.2474 17.7797 34.3109 18.3712L34.3019 18.3762L23.2283 24.8693C21.7963 25.6963 20.162 26.1327 18.497 26.1327C16.832 26.1327 15.1977 25.6963 13.7657 24.8693L13.7632 24.8668L2.6895 18.3737C1.74331 17.7887 0.993477 16.9471 0.532304 15.9525C0.208198 15.2599 0.0283248 14.5117 0.00308411 13.751C-0.0221566 12.9904 0.107736 12.2324 0.385252 11.5209C0.877355 10.1791 1.77853 9.01561 2.96826 8.18594C3.14308 8.03087 3.33375 7.89364 3.53729 7.77638L15.749 0.730569H15.7503ZM16.3999 1.80238L4.18816 8.84819C2.81354 9.64116 2.81993 11.5644 4.1856 12.3437L4.18944 12.345L16.3999 19.3908C17.0354 19.7557 17.7598 19.9482 18.4976 19.9482C19.2355 19.9482 19.9599 19.7557 20.5954 19.3908L32.8071 12.345C34.1817 11.552 34.1754 9.62871 32.8097 8.84944L32.8071 8.84819L20.5954 1.80238C19.9598 1.43757 19.2355 1.24517 18.4976 1.24517C17.7598 1.24517 17.0355 1.43757 16.3999 1.80238V1.80238Z" fill="#F1A30B"/>
</svg>
