<svg width="15" height="15" viewBox="0 0 15 15" fill="none" xmlns="http://www.w3.org/2000/svg">
<path d="M1.5 2.625C1.08579 2.625 0.75 2.96079 0.75 3.375C0.75 3.78921 1.08579 4.125 1.5 4.125V2.625ZM13.5 4.125C13.9142 4.125 14.25 3.78921 14.25 3.375C14.25 2.96079 13.9142 2.625 13.5 2.625V4.125ZM5.25 10.875C5.25 11.2892 5.58579 11.625 6 11.625C6.41421 11.625 6.75 11.2892 6.75 10.875H5.25ZM6.75 6.375C6.75 5.96079 6.41421 5.625 6 5.625C5.58579 5.625 5.25 5.96079 5.25 6.375H6.75ZM8.25 10.875C8.25 11.2892 8.58579 11.625 9 11.625C9.41421 11.625 9.75 11.2892 9.75 10.875H8.25ZM9.75 6.375C9.75 5.96079 9.41421 5.625 9 5.625C8.58579 5.625 8.25 5.96079 8.25 6.375H9.75ZM10.5 13.125H4.5V14.625H10.5V13.125ZM11.25 12.375C11.25 12.7892 10.9142 13.125 10.5 13.125V14.625C11.7426 14.625 12.75 13.6176 12.75 12.375H11.25ZM11.25 4.125V12.375H12.75V4.125H11.25ZM3.75 12.375V4.125H2.25V12.375H3.75ZM4.5 13.125C4.08579 13.125 3.75 12.7892 3.75 12.375H2.25C2.25 13.6176 3.25736 14.625 4.5 14.625V13.125ZM11.25 2.625H3.75V4.125H11.25V2.625ZM3.75 4.125L3.75 4.125V2.625C2.92157 2.625 2.25 3.29657 2.25 4.125H3.75ZM12.75 4.125C12.75 3.29657 12.0784 2.625 11.25 2.625V4.125L11.25 4.125H12.75ZM1.5 4.125H13.5V2.625H1.5V4.125ZM6 1.875H9V0.375H6V1.875ZM9 1.875V2.625H10.5V1.875H9ZM9 2.625H6V4.125H9V2.625ZM6 2.625V1.875H4.5V2.625H6ZM6 2.625L6 2.625H4.5C4.5 3.45343 5.17157 4.125 6 4.125V2.625ZM9 2.625L9 2.625V4.125C9.82843 4.125 10.5 3.45343 10.5 2.625H9ZM9 1.875L9 1.875H10.5C10.5 1.04657 9.82843 0.375 9 0.375V1.875ZM6 0.375C5.17157 0.375 4.5 1.04657 4.5 1.875H6L6 1.875V0.375ZM6.75 10.875V6.375H5.25V10.875H6.75ZM9.75 10.875V6.375H8.25V10.875H9.75Z" fill="#444444"/>
</svg>
