<svg width="15" height="14" viewBox="0 0 15 14" fill="none" xmlns="http://www.w3.org/2000/svg">
<g clip-path="url(#clip0_108_3)">
<path d="M11.625 3.86169C10.725 3.86169 9.875 4.18836 9.26875 4.75419L4.875 8.39419C4.475 8.76753 3.94375 8.97169 3.375 8.97169C2.20625 8.97169 1.25625 8.09086 1.25625 7.00003C1.25625 5.90919 2.20625 5.02836 3.375 5.02836C3.94375 5.02836 4.475 5.23253 4.9 5.62919L5.60625 6.21253L6.55 5.43086L5.7625 4.78336C5.125 4.18836 4.275 3.86169 3.375 3.86169C1.5125 3.86169 0 5.27336 0 7.00003C0 8.72669 1.5125 10.1384 3.375 10.1384C4.275 10.1384 5.125 9.81169 5.73125 9.24586L10.125 5.60586C10.525 5.23253 11.0563 5.02836 11.625 5.02836C12.7938 5.02836 13.7437 5.90919 13.7437 7.00003C13.7437 8.09086 12.7938 8.97169 11.625 8.97169C11.0625 8.97169 10.525 8.76753 10.1 8.37086L9.3875 7.78169L8.44375 8.56336L9.2375 9.21669C9.875 9.80586 10.7188 10.1325 11.625 10.1325C13.4875 10.1325 15 8.72669 15 6.99419C15 5.26169 13.4875 3.86169 11.625 3.86169V3.86169Z" fill="#E88686"/>
</g>
<defs>
<clipPath id="clip0_108_3">
<rect width="15" height="14" fill="white"/>
</clipPath>
</defs>
</svg>
