<svg width="52" height="38" viewBox="0 0 52 38" fill="none" xmlns="http://www.w3.org/2000/svg">
<path d="M22.1465 5.76268L24.729 4.24148C25.2596 3.92309 25.9141 3.92309 26.4447 4.24148L29.0095 5.76268C29.6216 6.13413 29.7171 6.94779 29.2996 7.4466L30.8739 8.37878L31.3815 8.07808C31.9122 7.75969 32.5667 7.75969 33.0796 8.07808L35.6621 9.59928C36.3873 10.0415 36.3873 11.1028 35.6621 11.5273L34.5548 12.18C34.5576 12.2844 34.5553 12.3889 34.5478 12.4931V15.7389C34.5478 16.0874 34.4858 16.4394 34.362 16.7772L35.6621 17.5431C36.3873 17.9853 36.3873 19.0466 35.6621 19.4711L33.0796 20.9923C32.824 21.1487 32.5302 21.2314 32.2306 21.2314C31.931 21.2314 31.6372 21.1487 31.3815 20.9923L29.9594 20.1539L28.2224 21.1798L29.0113 21.6468C29.7365 22.089 29.7365 23.1503 29.0113 23.5748L26.4288 25.096C26.1732 25.2523 25.8794 25.3351 25.5798 25.3351C25.2801 25.3351 24.9863 25.2523 24.7307 25.096L22.1482 23.5748C21.423 23.1326 21.423 22.0713 22.1482 21.6468L22.9442 21.1763L21.4407 20.2866L19.7957 21.2559C19.5401 21.4122 19.2463 21.4949 18.9466 21.4949C18.647 21.4949 18.3532 21.4122 18.0976 21.2559L15.5151 19.7347C14.7899 19.2925 14.7899 18.2312 15.5151 17.8067L16.8983 16.993C16.7196 16.5985 16.6279 16.1702 16.6295 15.7371V12.4931L16.6259 12.4489L15.5151 11.7944C14.7899 11.3522 14.7899 10.2909 15.5151 9.86637L18.0976 8.34517C18.3532 8.18885 18.647 8.10613 18.9466 8.10613C19.2463 8.10613 19.5401 8.18885 19.7957 8.34517L20.0734 8.50791L21.8617 7.44307C21.7583 7.31847 21.6831 7.173 21.6412 7.01661C21.5993 6.86023 21.5916 6.69663 21.6189 6.53703C21.6461 6.37743 21.7075 6.2256 21.7988 6.09195C21.8902 5.95829 22.0094 5.84597 22.1482 5.76268H22.1465ZM18.3965 15.0172V15.7371C18.3965 16.1581 18.5911 16.5437 18.9891 16.779L24.4053 19.9823C25.134 20.4175 26.0414 20.4175 26.7702 19.9823H26.7737L32.1864 16.7807C32.3683 16.6744 32.519 16.5219 32.6231 16.3387C32.7271 16.1554 32.7809 15.9479 32.7789 15.7371V15.0172L27.6776 18.0348C27.0458 18.4113 26.3241 18.6101 25.5886 18.6101C24.8532 18.6101 24.1314 18.4113 23.4996 18.0348L18.3983 15.0172H18.3965ZM24.4053 7.98787L18.9891 11.2089C18.8023 11.3167 18.6479 11.4728 18.5421 11.6607C18.4362 11.8487 18.3829 12.0616 18.3877 12.2773C18.3948 12.6841 18.5929 13.0786 18.9891 13.3121L24.4053 16.5154C25.134 16.9505 26.0414 16.9505 26.7702 16.5154H26.7737L32.1864 13.3138C32.3685 13.2087 32.5198 13.0577 32.6253 12.8758C32.7309 12.6939 32.7869 12.4876 32.7878 12.2773C32.7925 12.0616 32.7392 11.8487 32.6334 11.6607C32.5276 11.4728 32.3732 11.3167 32.1864 11.2089L26.7614 8.00025C26.4074 7.78272 26.0005 7.66653 25.585 7.66434C25.1696 7.66216 24.7615 7.77407 24.4053 7.98787Z" fill="#F1A30B"/>
<path d="M8.86276 13.9701L11.4453 12.4489C11.9759 12.1305 12.6304 12.1305 13.1433 12.4489L15.7258 13.9701C16.4511 14.4123 16.4511 15.4736 15.7258 15.8981L13.1433 17.4193C12.8877 17.5756 12.5939 17.6583 12.2943 17.6583C11.9947 17.6583 11.7009 17.5756 11.4453 17.4193L8.86276 15.8981C8.13754 15.4559 8.13754 14.3946 8.86276 13.9701ZM38.0308 11.9182L35.4483 13.4394C34.7231 13.8639 34.7231 14.9252 35.4483 15.3674L38.0308 16.9063C38.5615 17.2247 39.2159 17.2247 39.7289 16.9063L42.3114 15.3851C43.0366 14.9606 43.0366 13.8993 42.3114 13.4571L39.7289 11.9359C39.4764 11.773 39.1829 11.6849 38.8824 11.6817C38.5819 11.6786 38.2867 11.7606 38.0308 11.9182Z" fill="#F1A30B"/>
<path d="M21.7872 1.03809C22.9387 0.358472 24.2514 0 25.5884 0C26.9255 0 28.2382 0.358472 29.3897 1.03809L46.2785 11.0497H46.282C46.5474 11.2053 46.7915 11.3822 47.0126 11.575C48.6871 12.7607 49.9542 14.4349 50.6404 16.3686C51.0295 17.3793 51.2121 18.4577 51.1775 19.5402C51.1429 20.6226 50.8917 21.6872 50.4388 22.6709L50.437 22.6727C49.7886 24.0741 48.7572 25.2637 47.4618 26.1042L47.4495 26.1113L32.1314 35.3375C30.1505 36.5126 27.8898 37.1327 25.5867 37.1327C23.2835 37.1327 21.0228 36.5126 19.042 35.3375L19.0385 35.334L3.72035 26.1078C2.4115 25.2765 1.37426 24.0806 0.73633 22.6674C0.287998 21.6833 0.0391813 20.6201 0.00426622 19.5392C-0.0306489 18.4584 0.14903 17.3813 0.532914 16.3703C1.21363 14.4638 2.46022 12.8105 4.10596 11.6316C4.34779 11.4113 4.61154 11.2163 4.89309 11.0497L21.7855 1.03809H21.7872ZM22.6858 2.56105L5.79343 12.5726C3.89193 13.6994 3.90077 16.4322 5.78989 17.5395L5.79519 17.5413L22.6858 27.5529C23.5649 28.0714 24.5669 28.3449 25.5876 28.3449C26.6082 28.3449 27.6102 28.0714 28.4893 27.5529L45.3817 17.5413C47.2832 16.4146 47.2743 13.6817 45.3852 12.5744L45.3817 12.5726L28.4893 2.56105C27.6102 2.04269 26.6082 1.76929 25.5876 1.76929C24.5669 1.76929 23.565 2.04269 22.6858 2.56105Z" fill="#F1A30B"/>
</svg>
